<?xml version="1.0" standalone="no"?>
<svg viewBox="-350 -150 1500 1500" style="width: 390px; height: 390px; justify-content: center; align-self: center; transform: scale(1, 1);"  xmlns="http://www.w3.org/2000/svg"><rect x="-350" y="-150" width="100%" height="100%" fill="none" rx="30"></rect><g transform="rotate(359 410.2930660247803 581.9784298983577)"><g transform="translate(0 459)"><path d="M4.46846 617.466C1.47446 644.912 -5.30754 675.146 7.62046 701.041C-0.521543 701.406 6.08346 703.761 10.4775 704.571C12.9865 706.513 16.3585 707.282 19.5295 707.012C35.9935 710.492 52.9895 711.753 69.7065 713.722C278.424 731.058 488.541 726.454 697.649 718.984C704.451 718.689 709.013 713.749 709.534 707.095C717.198 609.173 721.012 510.948 720.817 412.727C717.412 378.21 743.501 391.679 729.584 346.195C718.396 298.22 701.837 251.523 680.721 207.027C666.125 178.072 652.372 147.605 630.125 123.594C623.095 122.623 617.11 115.64 611.169 111.74C605.152 110.568 600.692 105.459 594.594 103.888C582.973 100.865 556.967 94.4355 547.07 102.168C546.68 102.061 546.284 101.97 545.892 101.859C543.955 104.007 541.294 102.396 539.849 100.466C534.904 96.6265 513.29 96.2318 510.837 90.3398C498.049 78.7398 494.628 54.3264 494.628 40.0437C489.846 34.6707 489.514 35.6685 483.023 32.8285C476.659 24.8015 468.971 17.8095 460.39 12.2975C412.099 -19.4105 342.022 14.0015 330.717 69.1145C312.846 83.2645 294.451 97.6385 272.562 105.012C261.88 99.5165 249.711 97.7625 238.374 97.7515C229.923 97.4445 218.245 92.5575 212.753 101.452C120.356 131.699 64.5925 219.67 24.9405 303.023C19.3825 314.891 12.7335 327.317 14.4345 340.838C15.6035 357.031 33.1775 366.669 29.8565 383.83C25.0295 431.036 19.5385 478.194 14.5135 525.386C11.1645 556.079 7.81646 586.773 4.46846 617.466Z" transform="translate(43.00014 -25.00075)" fill="#FFFFFF" stroke="none"></path><path d="M645.623 99.1429C681.181 128.037 700.94 171.736 716.266 213.804C733.781 261.884 749.219 311.02 760.316 361.003C761.733 367.384 757.422 373.413 750.737 373.58C743.83 373.751 736.989 374.332 730.201 375.333C731.589 384.236 732.022 393.377 732.807 402.275C733.854 414.145 734.874 426.019 735.603 437.915C738.267 481.422 738.407 525.056 737.583 568.627C737.171 590.409 736.461 612.176 735.437 633.937C734.925 644.816 734.347 655.692 733.702 666.563C733.569 668.813 733.525 671.199 733.48 673.649C733.32 682.234 733.147 691.602 729.08 698.608C725.726 704.385 718.627 701.95 717.012 696.874C716.939 696.917 716.866 696.958 716.792 697.001C714.818 691.974 715.298 686.482 715.763 681.16C715.844 680.241 715.924 679.327 715.99 678.421C716.453 672.165 716.893 665.905 717.311 659.645C718.104 647.784 718.818 635.917 719.453 624.046C721.765 580.845 723.125 537.614 723.951 494.36C724.361 472.904 724.546 451.448 725.067 429.993C725.332 419.104 725.67 408.217 725.873 397.326C726.005 390.241 725.897 383.067 726.318 375.956C722.837 376.555 719.367 377.258 715.911 378.097C710.073 379.514 704.313 381.242 698.646 383.238C696.982 383.824 695.285 384.564 693.565 385.314C689.479 387.094 685.26 388.932 681.035 388.915C679.156 388.907 677.563 388.385 676.259 387.542C680.854 432.991 683.866 478.612 687.079 524.17C690.578 573.769 694.995 623.456 697.036 673.139C697.071 678.631 692.375 683.265 686.911 683.265C681.096 683.265 677.267 678.586 676.786 673.139C676.533 670.265 676.297 667.387 676.065 664.51C669.677 668.278 662.06 668.294 654.621 668.309C652.728 668.313 650.846 668.317 648.999 668.383C639.379 668.725 629.76 669.059 620.141 669.387C601.565 670.018 582.989 670.623 564.412 671.2C497.403 673.28 430.379 675.157 363.347 676.239L358.055 676.325C326.304 676.839 294.551 677.353 262.795 677.352C245.857 677.352 228.951 677.196 212.018 676.76C203.714 676.547 195.394 676.072 187.126 675.266C180.357 674.606 173.666 673.399 166.926 672.526C166.847 674.055 166.774 675.584 166.692 677.113C166.337 683.729 166.344 691.54 161.931 696.931C158.631 700.963 153.9 702.344 149.504 699.413C143.281 695.261 143.116 686.833 143.306 680.109C143.476 674.116 143.893 668.12 144.193 662.132C144.811 649.815 145.429 637.499 146.046 625.18C148.567 574.89 151.798 524.62 155.136 474.377C156.742 450.206 158.438 426.055 159.658 401.861C160.154 391.997 160.503 382.09 160.395 372.204C152.538 372.144 144.685 371.99 136.842 371.703C142.745 374.451 148.617 377.385 153.039 382.107C156.425 385.721 154.345 393.463 148.598 392.83C137.847 391.644 128.355 385.27 118.799 380.45C109.322 375.668 99.8494 370.883 90.3904 366.068C80.6374 361.103 70.8844 356.138 61.1304 351.173C55.8734 348.497 50.4384 345.984 45.1714 343.211C44.7194 365.812 42.0994 388.351 39.9274 410.832C35.6604 454.985 30.6744 499.022 27.2944 543.262C25.5934 565.533 24.3494 587.84 23.7124 610.166C23.3944 621.333 23.2674 632.498 23.2344 643.667C23.2314 644.714 23.2279 645.762 23.2243 646.81C23.2079 651.678 23.1914 656.546 23.2284 661.415C23.2346 662.255 23.251 663.083 23.2673 663.903C23.3325 667.187 23.3946 670.323 22.7824 673.42C22.6784 674.444 22.3934 675.448 21.9564 676.409C21.6934 677.131 21.3854 677.854 21.0174 678.578C20.9574 678.5 20.8964 678.421 20.8374 678.344C16.7774 684.042 7.54642 686.91 2.79342 678.578C-0.0983479 673.508 -0.0139264 667.349 0.0666757 661.468C0.0852178 660.115 0.103558 658.777 0.0854167 657.47C0.000416649 651.226 -0.0355834 644.983 0.0454166 638.739C0.207417 626.256 0.578417 613.776 1.13342 601.305C3.14042 556.215 7.73642 511.401 13.7364 466.68C16.7384 444.307 20.2334 421.999 24.2394 399.783C27.9274 379.333 31.7714 358.821 37.5094 338.831C37.1324 338.594 36.7484 338.37 36.3754 338.127C30.7624 334.493 25.4074 329.918 22.5054 323.762C18.7214 315.738 19.9124 307.063 22.5544 298.885C27.7524 282.792 33.9594 266.934 40.5194 251.353C53.5344 220.442 68.6594 190.465 88.6014 163.386C124.541 114.585 175.918 75.7179 237.596 69.4109C237.921 69.3769 237.964 69.8799 237.67 69.9629C206.66 78.7349 177.596 94.8639 152.29 114.66C144.576 120.694 137.269 127.161 130.337 133.988C130.515 133.956 130.704 133.924 130.907 133.893C133.709 133.471 136.543 133.241 139.36 132.948C144.993 132.363 150.66 132.17 156.313 131.868C167.281 131.28 178.246 130.665 189.223 130.263C191.943 130.163 194.67 130.06 197.402 129.956C217.216 129.202 237.31 128.438 257.035 129.194C258.073 129.234 258.998 129.433 259.821 129.747C257.039 125.832 254.471 121.779 252.198 117.596C246.741 107.553 241.733 96.1239 240.994 84.5189C239.001 83.5509 239.149 81.0299 240.938 80.1909C240.944 79.9809 240.939 79.7719 240.949 79.5619C240.97 79.1229 241.493 79.0149 241.735 79.3489C241.869 79.5339 241.999 79.7209 242.133 79.9069C254.679 78.5479 266.715 77.4399 278.875 73.7309C290.388 70.2179 301.003 64.5929 310.852 57.7119C320.234 51.1569 328.847 42.7579 335.548 33.4699C339.214 28.3889 342.428 22.9829 345.108 17.3189C346.262 14.8809 347.188 12.3779 348.107 9.84589C348.689 8.24189 349.178 6.49389 350.087 5.03189C351.432 2.86989 354.167 1.57489 355.33 0.90589C358.45 -0.88611 363.327 -0.00911032 365.014 3.44489C363.98 2.68089 364.322 3.20889 366.04 5.03189C366.876 6.47189 367.296 8.02589 367.301 9.69389C367.301 11.9589 366.498 14.0749 365.679 16.1349C364.354 19.4699 362.914 22.7739 361.312 25.9859C358.232 32.1609 354.497 37.9359 350.299 43.4069C341.787 54.4989 331.426 63.8229 319.599 71.2909C299.52 83.9729 270.538 92.9509 246.567 86.3789C252.992 96.1629 258.731 106.348 266.216 115.481C275.285 126.547 285.693 136.887 297.007 145.659C319.433 163.044 346.387 173.938 373.941 180.03C402.544 186.352 433.029 188.235 462.115 184.362C489.075 180.772 515.519 171.26 536.409 153.475C555.156 137.514 568.509 117.217 576.599 94.1099C556.978 90.8589 537.643 85.2929 523.409 70.4339C508.912 55.2999 504.722 32.2419 507.627 12.0429C507.712 11.4519 508.639 11.6209 508.64 12.1799C508.663 22.1429 510.888 32.3969 516.823 40.5359C522.105 47.7769 527.717 54.5059 534.694 60.1979C550.154 72.8109 571.29 75.9359 590.474 78.1289C595.321 78.6839 599.468 81.8019 599.468 87.1239C599.468 89.3619 598.39 91.8049 596.7 93.5879C596.766 94.7069 596.634 95.9149 596.233 97.2079C592.25 110.056 586.283 122.237 578.788 133.42C583.394 132.692 588.107 132.422 592.688 132.011C600.198 131.337 607.775 131.052 615.307 130.7C623.164 130.331 631.044 130.308 638.908 130.153C639.265 130.146 639.644 130.135 640.04 130.124C645.662 129.969 654.887 129.714 654.881 137.444C654.876 145.181 645.622 144.89 640.006 144.714C639.621 144.702 639.254 144.69 638.908 144.682C631.045 144.492 623.161 144.452 615.307 144.031C607.441 143.608 599.546 143.267 591.705 142.522C585.83 141.963 579.768 141.607 574.01 140.147C564.45 152.841 552.885 164.049 540.032 173.209C538.854 174.05 537.653 174.849 536.452 175.649C572.787 172.091 609.516 171.757 646.079 171.425C656.861 171.327 667.63 171.229 678.369 171.049C680.505 171.013 682.084 171.85 683.116 173.108C679.946 166.426 676.594 159.843 672.977 153.414C653.014 117.936 623.503 83.3179 583.625 70.2349C582.934 70.0079 583.216 68.9999 583.924 69.1499C606.984 74.0169 627.346 84.2909 645.623 99.1429ZM125.896 138.471C127.507 139.679 128.023 140.441 130.431 140.864C133.042 141.321 135.727 141.467 138.363 141.725C144.003 142.277 149.657 142.483 155.316 142.751C166.616 143.288 177.915 143.856 189.223 144.2C191.945 144.282 194.674 144.369 197.408 144.456C217.223 145.086 237.319 145.725 257.035 144.848C262.524 144.604 265.021 140.078 264.522 135.954C268.73 141.165 273.331 146.057 278.231 150.517C286.109 157.686 294.613 164.041 303.578 169.649C297.762 169.862 291.84 170.591 286.351 170.827C277.049 171.225 267.747 171.624 258.445 172.024C238.843 172.866 219.243 173.77 199.644 174.686C163.371 176.381 127.222 178.491 91.0874 181.951C101.407 166.442 112.967 151.813 125.896 138.471ZM62.3454 233.55C57.9634 242.958 53.9094 252.495 50.1774 262.097C45.3214 274.591 40.1334 287.405 36.4144 300.383C84.2964 292.181 132.661 288.856 181.146 286.37C270.118 281.805 359.465 282.737 448.505 284.249C537.491 285.759 626.451 288.511 715.407 291.235C725.894 291.555 725.913 307.825 715.407 307.547C699.219 307.12 683.032 306.675 666.844 306.235C667.191 308.633 667.475 311.071 667.78 313.596C668.623 320.559 669.609 327.506 670.437 334.47C671.043 339.582 671.618 344.697 672.193 349.811C679.854 349.74 687.523 349.531 695.194 349.322C707.997 348.973 720.802 348.624 733.581 348.917C737.048 348.997 738.426 351.982 737.813 354.514C738.032 354.493 738.251 354.473 738.471 354.454C733.184 331.339 727.63 308.307 721.386 285.418C711.337 248.588 700.601 210.723 684.394 175.796C685.201 179.442 683.194 183.862 678.369 183.893C667.619 183.963 656.842 184.117 646.05 184.271C606.146 184.842 566.043 185.415 526.377 181.764C504.063 194.064 478.77 200.346 453.39 202.434C421.765 205.036 388.877 201.864 358.299 193.409C344.212 189.514 330.513 184.258 317.561 177.595C317.034 178.245 316.334 178.755 315.453 178.994C311.72 180.004 307.746 180.049 303.836 180.092C302.65 180.106 301.47 180.119 300.304 180.159C295.653 180.318 291.002 180.477 286.351 180.637L257.449 181.627C238.182 182.288 218.913 182.883 199.644 183.47C162.923 184.588 126.289 185.542 89.5764 184.252C79.8644 199.101 71.2574 214.718 63.6504 230.754C85.6734 231.535 107.676 233.391 129.726 234.052C152.491 234.735 175.298 234.602 198.062 233.92C280.652 231.449 363.087 225.69 445.707 223.747C486.86 222.779 528.025 222.292 569.19 222.287C590.104 222.284 611.019 222.394 631.931 222.655C642.221 222.783 652.511 222.941 662.801 223.129C668.443 223.233 674.086 223.345 679.728 223.466C684.937 223.579 688.705 224.801 693.401 226.887C698.102 228.974 695.88 235.272 692.113 236.739C688.832 238.018 686.25 239.081 682.715 239.188C680.968 239.241 679.206 239.173 677.447 239.105C676.547 239.071 675.647 239.036 674.75 239.018C668.775 238.895 662.801 238.782 656.826 238.679C645.209 238.48 633.591 238.323 621.973 238.192Q587.118 237.799 552.259 237.868C469.045 238.029 385.917 240.536 302.781 243.969C299.442 244.107 296.103 244.247 292.763 244.386C255.677 245.937 218.558 247.49 181.438 246.732C160.914 246.313 140.434 245.234 119.994 243.313C100.794 241.51 80.9494 238.801 62.3454 233.55ZM40.4384 323.534C45.8624 327.792 52.6384 330.535 58.7824 333.541C74.5874 341.273 90.3954 349 106.198 356.737C110.179 358.686 114.154 360.645 118.127 362.608C132.022 361.057 145.99 360.022 159.987 359.286C159.784 355.258 159.51 351.235 159.105 347.223C158.593 342.144 158.151 337.209 159.9 332.362C159.999 332.088 160.305 332.004 160.526 332.197C165.131 336.19 166.869 342.098 168.409 347.846C169.378 351.464 170.237 355.106 171.011 358.766C193.521 357.807 216.072 357.452 238.479 356.778C320.978 354.293 403.515 352.808 486.03 350.92C491.293 350.8 496.555 350.675 501.818 350.551C537.812 349.7 573.8 348.85 609.805 349.256C626.475 349.444 643.139 349.804 659.807 349.845C659.706 343.061 659.668 336.276 659.813 329.501C659.864 327.135 659.873 324.745 659.882 322.345C659.901 316.922 659.921 311.446 660.425 306.061C628.563 305.191 596.703 304.309 564.842 303.415C476.373 300.93 387.873 298.934 299.362 299.432C254.98 299.682 210.626 300.567 166.256 301.62C152.973 301.935 139.699 302.333 126.427 302.73C96.0632 303.639 65.7152 304.547 35.3134 304.473C35.1714 305.017 35.0114 305.56 34.8754 306.106C33.0534 313.412 34.5094 318.878 40.4384 323.534ZM674.797 373.429C679.069 368.542 687.443 366.434 693.417 364.271C699.14 362.2 704.983 360.459 710.895 359.013C698.37 359.363 685.825 359.471 673.307 359.768C673.807 364.322 674.305 368.875 674.797 373.429ZM566.013 477.869C533.414 478.132 500.813 478.16 468.215 477.951C403.688 477.537 339.182 475.95 274.669 474.668C256.714 474.313 238.783 473.96 220.825 473.959C211.528 473.959 202.2 474.021 192.913 474.424C187.068 474.678 181.142 474.715 175.324 475.417L175.401 473.376C176.078 455.26 176.757 437.127 176.734 419.004C238.28 428.325 300.487 430.885 362.641 432.719C425.61 434.577 488.594 435.54 551.59 435.632C569.493 435.659 587.396 435.619 605.298 435.513C613.917 435.463 622.537 435.397 631.156 435.316C632.654 435.302 634.154 435.302 635.655 435.302C638.8 435.302 641.947 435.303 645.079 435.171C649.974 434.965 652.931 433.805 656.35 430.323C658.1 428.542 658.189 425.468 656.35 423.694C651.13 418.659 645.123 418.865 638.53 419.092C637.414 419.13 636.282 419.169 635.134 419.183C627.178 419.282 619.222 419.367 611.265 419.439C595.353 419.584 579.439 419.676 563.525 419.717C532.362 419.796 501.198 419.676 470.036 419.358C407.056 418.714 344.09 417.314 281.125 415.839C246.315 415.024 211.512 415.248 176.73 416.936C176.717 413.814 176.688 410.691 176.627 407.569C176.398 395.745 175.246 383.921 173.444 372.228C190.49 372.169 207.535 371.805 224.504 371.587C265.767 371.058 307.021 370.227 348.279 369.399C389.205 368.579 430.131 367.758 471.057 366.937C511.957 366.117 552.983 366.058 593.834 363.85C615.88 362.658 637.934 361.038 659.997 360.187L660.126 366.262C660.657 391.107 661.628 415.928 662.881 440.747C663.483 452.672 664.118 464.597 664.771 476.52C664.455 476.489 664.132 476.47 663.8 476.467C644.574 476.339 625.327 476.759 606.081 477.178L606.077 477.178C592.719 477.47 579.361 477.761 566.013 477.869ZM665.914 650.719C661.606 650.759 657.284 651.059 652.979 651.227C644.687 651.548 636.395 651.865 628.102 652.176C611.185 652.81 594.268 653.421 577.349 654.01C543.845 655.175 510.337 656.25 476.826 657.237C409.805 659.208 342.75 660.402 275.738 662.656C257.147 663.281 238.557 663.767 219.983 664.779C210.358 665.303 200.688 665.754 191.109 666.869C183.028 667.809 175.062 669.395 167.026 670.577C167.565 660.106 168.07 649.633 168.595 639.163C169.092 629.257 169.556 619.35 170.017 609.442C201.386 611.083 232.792 611.746 264.203 612.026C297.429 612.323 330.645 613.147 363.873 613.211C419.854 613.322 475.838 612.739 531.818 612.156C541.619 612.054 551.42 611.952 561.22 611.854C579.824 611.666 598.43 611.48 617.035 611.293C626.337 611.2 635.64 611.106 644.942 611.012C646.486 610.997 648.033 610.997 649.581 610.998C652.689 611 655.8 611.001 658.896 610.873C663.848 610.667 666.855 609.259 670.449 605.927C672.366 604.15 672.446 600.531 670.449 598.768C667.565 596.221 664.888 594.267 660.89 593.981C658.267 593.793 655.567 593.903 652.889 594.012C651.559 594.067 650.236 594.121 648.929 594.138C640.291 594.251 631.653 594.366 623.015 594.479C606.403 594.698 589.792 594.916 573.18 595.134C539.956 595.571 506.732 596.018 473.51 596.524C440.95 597.021 408.387 597.391 375.833 598.209C342.594 599.046 309.394 600.557 276.163 601.625C240.791 602.761 205.437 604.118 170.145 606.772C170.993 588.407 171.774 570.038 172.509 551.667C242.584 555.481 312.707 558.196 382.899 558.315C456.027 558.44 529.151 557.19 602.252 555.282C612.553 555.012 622.854 554.74 633.153 554.417C638.469 554.25 643.785 554.096 649.101 553.904C653.009 553.762 657.025 553.595 660.558 551.726C667.53 548.038 668.733 537.269 660.461 534.323C655.939 532.713 651.142 534.287 650.042 538.364C649.704 538.397 649.382 538.424 649.101 538.435C645.114 538.585 641.126 538.696 637.14 538.822C628.501 539.096 619.863 539.377 611.224 539.648C595.275 540.147 579.325 540.608 563.374 541.03C530.808 541.893 498.238 542.596 465.665 543.139C401.175 544.213 336.69 545.206 272.208 546.68C239.002 547.44 205.806 548.425 172.604 549.267C173.397 529.298 174.146 509.329 174.821 489.358C174.9 487.018 174.986 484.676 175.071 482.335C179.829 483.381 184.701 483.96 189.548 484.646C197.959 485.836 206.396 486.717 214.843 487.608C230.759 489.287 246.727 490.317 262.702 491.199C295.271 492.995 327.849 494.262 360.452 495.255C424.945 497.219 489.518 497.647 554.037 497.426C561.946 497.399 569.865 497.402 577.797 497.404L577.803 497.404C604.984 497.414 632.23 497.423 659.338 496.241C661.496 496.831 663.72 496.77 665.871 496.067C667.637 527.287 669.502 558.5 671.335 589.716C672.572 610.777 673.663 631.909 675.182 652.977C672.215 651.516 669.484 650.688 665.914 650.719Z" transform="translate(30.00028 3.00011)" fill="#000000" fill-rule="evenodd" stroke="none"></path></g><g transform="translate(225 0)"><g><g><path d="M333.415 93.2216C329.554 69.8624 342.226 65.0158 333.415 42.8109C313.833 1.66731 260.468 3.44007 221.308 0.276637C177.63 -1.39736 133.422 4.36885 93.1557 21.875C83.5377 26.056 74.2867 30.9732 65.4187 36.5599C57.7507 41.3913 58.8047 50.5773 63.6397 55.5884C28.7747 104.96 48.7157 171.232 20.8967 223.202C15.7577 232.491 8.96066 240.821 4.49366 250.487C-2.29634 265.18 -2.73134 286.233 12.6667 295.99C34.3537 307.631 46.4557 284.584 57.1117 317.993C110.33 434.483 217.329 441.044 318.905 380.31C327.693 375.422 336.662 369.897 343.298 362.217C358.361 345.266 356.587 321.428 356.92 300.259C357.106 287.854 357.137 275.447 357.016 263.039C356.542 212.781 339.885 143.065 333.415 93.2216Z" transform="translate(52 80)" fill="#FFFFFF" stroke="none"></path><path d="M328.858 2.05735C261.958 -4.86265 192.397 5.68736 131.067 33.5074C98.6176 48.2274 68.8166 68.4874 42.6976 92.7374C37.9276 91.3974 32.7076 91.1174 28.3676 91.8674C21.2676 93.0974 14.7676 97.1574 10.5076 102.957C4.02762 111.757 4.25762 122.977 9.17762 131.897C8.39662 132.526 7.67762 133.247 7.01762 134.026C1.82762 140.217 2.36762 148.207 6.17762 154.977C7.24342 156.875 9.16081 158.976 11.1901 161.199C15.3299 165.734 19.9355 170.779 18.7276 175.657C17.9176 178.967 14.9776 182.067 13.2676 184.977C11.1376 188.597 9.33762 192.377 7.73762 196.257C-4.71818 226.333 -0.00202393 258.647 7.02466 289.34L7.65708 292.088C9.04719 298.235 10.3267 305.444 12.6176 312.087C-4.37238 335.487 -0.292376 375.167 27.4976 388.417C34.3276 391.677 41.9276 393.517 49.5176 393.267C53.4776 393.127 57.6076 392.587 61.3576 391.287C63.2276 390.637 65.0776 389.807 66.5276 388.477C70.0076 406.887 77.9576 423.847 87.9476 439.797C93.5776 448.767 100.108 457.727 107.668 465.177C115.658 473.037 129.448 480.717 139.189 471.047C142.508 467.757 141.439 462.647 137.788 460.207C130.948 455.607 123.708 452.787 117.668 446.937C110.948 440.427 104.588 433.397 98.5876 426.227C90.0312 416.005 82.5119 404.857 75.1567 393.666L69.1576 384.517C69.171 384.487 69.1821 384.457 69.1921 384.427L69.2476 384.237C69.2636 384.143 69.2788 384.052 69.2933 383.963L69.4386 383.026C69.4725 382.954 69.5155 382.863 69.5663 382.753L69.8076 382.207C71.6466 378.677 69.3576 374.617 65.3576 374.446C64.0719 374.446 63.8943 374.407 64.8177 374.321L65.1976 374.287C63.8276 373.487 62.3476 373.087 60.7476 373.087C58.8776 373.087 57.0976 373.727 55.3076 374.167C52.6676 374.817 50.3166 375.276 47.5976 375.267C42.0176 375.247 36.6376 373.637 31.9276 370.667C21.0476 363.807 17.9076 349.097 19.6676 337.057C20.1676 333.647 20.9876 330.427 22.1576 327.427C23.6076 328.657 25.2276 329.707 27.0376 330.557C27.3076 330.687 27.5276 330.317 27.2776 330.147C25.5076 329.007 23.9876 327.647 22.6886 326.127C25.9476 318.507 31.4576 312.337 39.2876 308.007C44.2276 305.276 49.8076 303.977 55.2976 304.167C55.3166 304.327 55.3476 304.487 55.3776 304.647C55.9783 307.776 57.4624 309.353 59.6223 311.246L60.3966 311.917C63.3476 314.437 67.1276 314.207 69.5076 311.837L69.5666 311.917C70.3276 311.167 70.9776 310.467 71.5376 309.776C72.6466 310.607 73.6976 311.537 74.6886 312.567C75.0576 312.946 75.6776 312.457 75.4276 311.997C74.6466 310.587 73.7676 309.257 72.7876 308.026C74.0576 305.907 74.5476 303.667 74.5576 300.387C74.5642 297.003 74.4699 293.608 74.3758 290.218C74.3414 288.98 74.307 287.743 74.2776 286.507C74.0666 277.577 73.6076 268.647 73.2576 259.717C73.1717 257.481 72.9894 255.167 72.8046 252.821C72.3654 247.245 71.9123 241.493 72.7076 236.207C73.3663 231.834 76.0088 230.809 79.648 229.747L84.3783 228.38C95.5003 225.123 106.766 221.046 109.178 207.897C110.675 199.71 108.189 192.058 105.694 184.378C103.907 178.879 102.116 173.364 101.778 167.627C101.058 155.577 104.758 143.307 111.608 133.337C118.248 135.057 124.858 136.887 131.608 138.237C140.948 140.117 150.317 141.797 159.718 143.317C178.189 146.307 196.718 148.696 215.388 150.087C252.808 152.867 290.508 151.467 327.628 145.877C332.908 145.087 338.168 144.157 343.388 143.007C343.358 143.897 343.317 144.797 343.268 145.696C342.978 150.717 342.838 155.707 342.828 160.727C342.658 162.037 342.698 163.457 342.939 165.007L343.218 166.817C343.418 168.077 343.918 169.227 344.658 170.237C346.439 198.037 350.189 225.687 353.758 253.327L354.608 259.939C358.846 293 362.863 326.098 366.238 359.257C366.538 362.197 366.894 365.184 367.254 368.201C368.86 381.673 370.537 395.733 367.588 408.797C364.668 421.767 356.388 431.847 346.078 439.907C321.848 458.877 291.468 471.398 261.888 479.077C246.048 483.187 228.918 487.287 212.468 487.097C206.578 487.026 200.328 486.317 194.939 483.776C190.335 481.617 187.444 477.727 184.805 473.541L184.298 472.727C182.098 469.177 175.678 469.377 174.788 473.967C172.138 487.557 184.439 496.017 196.168 499.297C209.517 503.032 223.421 501.296 236.916 499.236L239.248 498.877C274.208 493.457 307.478 481.776 339.088 466.087C353.078 459.147 366.088 449.797 375.628 437.317C386.258 423.397 389.548 406.927 388.618 389.677C387.578 370.667 384.578 351.607 382.178 332.737L381.43 326.903C379.178 309.4 376.826 291.908 374.198 274.457C369.168 241.026 363.718 207.397 354.698 174.776C354.897 174.757 355.098 174.737 355.298 174.707C360.998 173.847 364.358 169.497 364.848 163.887L365.768 153.357L366.267 153.389C382.813 154.407 404.315 152.364 411.948 135.227C414.608 129.257 415.278 122.627 414.038 116.637C425.078 113.776 435.328 107.807 443.228 99.5574C447.328 95.2764 447.038 89.0874 443.228 84.7474C440.968 82.1574 438.558 79.8374 436.018 77.7574C443.228 75.1964 449.988 70.3974 453.748 63.7074C458.588 55.0974 456.689 44.5574 449.918 37.5874C444.1 31.5899 435.848 28.6654 428.193 25.719L425.475 24.6686C394.464 12.7839 361.878 5.46756 328.858 2.05735ZM54.9381 328.377C45.4381 327.567 37.7381 330.787 30.7671 336.937C30.0781 337.537 30.8371 338.477 31.5971 338.347C38.5071 337.127 46.6771 338.497 53.2781 340.627C60.6271 343.007 64.5781 348.007 70.4981 352.437C76.9981 357.297 86.0281 347.807 81.5971 341.337C75.9881 333.147 64.4881 329.196 54.9381 328.377Z" transform="translate(37.99998 0.0003450957)" fill="#000000" fill-rule="evenodd" stroke="none"></path></g></g><g transform="translate(159 186)"><g><path d="M140.63 0.473197L139.193 0.179116C137.503 -0.15929 135.804 -0.0161244 134.311 0.591153C132.847 1.18684 131.572 2.2242 130.68 3.72083C129.495 5.71373 129.337 7.38618 129.887 9.59525C130.311 11.3022 131.242 12.5864 132.46 13.5139C133.744 14.4911 135.37 15.0612 137.06 15.2595C144.854 16.175 152.53 17.8896 159.992 20.3235C163.488 21.4643 166.788 23.0096 170.058 24.6132L172.877 26.002C175.477 27.2735 178.163 28.499 181.557 29.3885C181.824 29.4584 182.087 29.5243 182.349 29.5865C183.29 29.2909 183.45 28.9329 183.649 28.6733L183.73 28.5721C183.972 28.2679 184.271 27.8025 183.988 25.6306C176.583 10.2711 156.267 3.74181 140.63 0.473197ZM43.5878 4.83023L45.4652 4.50163C51.273 3.49719 58.4944 2.53203 62.6028 7.20123C64.7819 9.67723 65.5318 14.2792 62.6028 16.6492C58.7671 19.7539 54.6298 19.6513 50.2182 19.5419C48.7043 19.5044 47.1582 19.466 45.5808 19.5562C40.4928 19.8482 35.6028 20.6902 30.7018 22.0912C19.9498 25.1642 11.1888 30.7742 2.00585 36.9342C0.800849 37.7422 -0.429151 36.2012 0.145849 35.0742C5.44685 24.6912 15.7198 16.1622 26.0098 10.9632C31.5019 8.18823 37.5118 5.88623 43.5878 4.83023ZM29.9632 50.1461C30.7976 39.7899 46.5702 37.4381 48.1392 47.6861C49.5442 56.8661 47.8902 65.2991 43.7552 73.5641C39.8042 81.4601 29.8737 77.7763 29.1227 70.5863C28.3809 63.4843 28.9069 59.2482 29.4428 54.933C29.6341 53.3921 29.8267 51.8412 29.9632 50.1461ZM159.205 41.8262C155.401 40.7152 152.226 42.6812 150.027 45.5612C149.773 45.8932 149.566 46.2222 149.38 46.5482C142.515 52.8562 145.101 65.6452 150.501 72.0492C153.814 75.9762 161.145 74.8452 163.413 70.3852C167.587 62.1722 171.09 45.2992 159.205 41.8262ZM128.748 119.039C136.872 107.66 125.366 96.9569 117.814 92.3669C115.836 90.9469 117.406 86.2431 121.634 86.9701C160.031 93.5671 140.136 159.708 91.112 123.413C85.2754 118.704 92.3434 108.334 98.6342 112.366C98.9532 112.611 99.2876 112.869 99.6364 113.139C106.704 118.603 119.636 128.601 128.748 119.039ZM93.5865 188.926C86.8642 186.184 80.8663 181.61 76.4812 175.766C74.9566 173.735 74.5614 171.589 74.8812 169.627C75.2408 167.421 76.546 165.422 78.326 164.08C80.1115 162.735 82.345 162.072 84.5043 162.41C86.3806 162.704 88.2484 163.731 89.7265 165.862L90.0354 166.288C92.6424 169.815 96.0396 172.708 99.9104 174.574C103.641 176.372 107.814 177.211 112.132 176.723C120.356 175.794 126.024 171.346 132.049 165.306C132.796 164.544 133.543 163.757 134.294 162.958C134.768 162.234 135.426 161.768 136.157 161.524C136.968 161.253 137.886 161.268 138.726 161.562C139.537 161.845 140.262 162.381 140.747 163.094C141.209 163.772 141.471 164.61 141.386 165.574C140.835 171.833 137.562 177.419 132.914 181.805C127.752 186.677 120.909 190.047 114.466 191.229C107.368 192.531 100.136 191.598 93.5865 188.926Z" transform="translate(53.00005 52.00027)" fill="#000000" fill-rule="evenodd" stroke="none"></path></g></g><g transform="translate(123 338)"></g><g transform="translate(47 241)"></g></g></g></svg>