<?xml version="1.0" standalone="no"?>
<svg viewBox="-350 -150 1500 1500" style="width: 390px; height: 390px; justify-content: center; align-self: center; transform: scale(1, 1);" xmlns="http://www.w3.org/2000/svg"><rect x="-350" y="-150" width="100%" height="100%" fill="none" rx="30"></rect><g transform="rotate(359 410.5864505767822 582.6887570467952)"><g transform="translate(0 459)"><path d="M748.281 585.022C744.25 562.258 740.555 539.434 737.197 516.56C735.603 505.7 734.049 494.83 732.65 483.942C731.671 476.314 730.18 467.591 735.37 461.942C742.673 453.99 749.307 447.184 750.201 435.793C751.042 425.076 747.418 413.393 745.152 402.99C740.4 381.174 734.484 359.628 727.948 338.286C721.306 316.603 714.024 295.124 706.637 273.686C699.731 253.642 693.092 233.417 684.097 214.186C667.026 177.691 638.146 150.664 602.454 132.618C593.578 128.13 575.472 112.108 566.198 108.521C557.672 105.223 557.703 114.854 549.311 111.226C542.603 108.326 536.357 104.459 532.601 97.9817C528.523 90.9492 518.297 81.1132 516.74 72.9271C513.441 55.5756 517.014 40.8073 504.63 27.7476C493.637 16.1509 478.859 8.20616 463.569 3.94138C429.933 -5.44032 385.075 1.11856 364.781 32.3739C355.088 47.3001 351.701 65.3415 338.622 77.523C327.202 88.1594 329.757 95.4313 314.965 100.913C314.127 101.224 291.42 96.3534 290.582 96.6648C274.4 93.2021 258.934 102.895 244.087 108.521C221.954 116.905 200.883 127.819 181.085 140.79C141.166 166.945 106.976 200.908 78.7895 239.341C50.3695 278.091 28.3185 321.523 12.6175 366.917C8.8045 377.943 5.3795 389.103 2.3585 400.372C0.667503 406.679 -1.1395 413.221 0.919503 419.677C2.6035 424.96 6.3495 428.893 10.7485 432.062C16.7115 436.359 28.6725 439.152 28.4395 447.794C28.2615 454.364 26.0325 461.279 24.9445 467.772C23.6495 475.504 22.5855 483.282 21.5215 491.048C16.6815 526.398 12.9145 561.947 11.2485 597.597C9.6085 632.699 8.2475 668.518 10.6825 703.61C10.8435 705.924 11.5335 708.048 12.6465 709.843C11.6075 710.241 11.5275 712.178 12.8205 712.452C13.7265 712.644 14.6305 712.835 15.5365 713.028C17.4185 714.452 19.7655 715.325 22.4665 715.41C24.2975 715.468 26.1275 715.55 27.9565 715.644C47.2575 719.679 66.5555 723.49 86.1085 726.376C109.876 729.883 133.714 732.743 157.626 735.069C206.762 739.845 255.51 738.261 304.71 735.686C353.833 733.115 402.928 732.514 452.104 733.793C501.322 735.074 550.521 737.214 599.75 738.091C654.75 739.068 709.664 737.566 764.504 733.194C772.023 732.595 776.675 726.613 775.193 719.145C766.307 674.402 756.238 629.958 748.281 585.022Z" transform="translate(25.9997 -31.99965)" fill="#FFFFFF" stroke="none"></path><path d="M387.499 11.4142C390.401 2.82024 378.393 -3.89576 372.349 2.59424C368.625 6.5925 367.134 11.7389 365.35 16.7859L364.976 17.8282C363.504 21.8572 361.659 25.7562 359.605 29.5212C355.317 37.3812 349.885 44.6692 343.661 51.1022C330.891 64.2992 314.162 73.6282 297.126 80.2062C296.582 80.4162 296.353 80.8962 296.408 81.3372C295.593 80.2272 294.779 79.1172 293.969 78.0072C293.529 77.4062 292.433 77.7312 292.683 78.5492C307.284 126.366 348.611 165.008 395.354 181.324C443.676 198.192 499.563 190.729 537.318 154.758C556.111 136.853 569.596 112.78 573.128 86.9302C573.281 85.8062 573.244 84.7832 573.07 83.8542C589.682 97.8742 607.105 110.89 623.392 125.306C642.416 142.146 660.893 160.15 676.08 180.597C691.487 201.344 703.101 224.254 710.862 248.896C718.244 272.335 722.639 296.55 726.714 320.754L728.773 333.051C733.39 360.393 738.797 387.342 746.69 413.895C737.862 416.725 729.065 419.643 720.268 422.581L703.534 428.171C699.095 429.654 694.083 432.097 689.427 433.074C686.213 432.549 683.001 433.893 680.87 436.224C679.693 417.484 678.804 398.731 678.163 379.989C677.675 365.731 677.406 351.456 676.792 337.203C676.149 322.266 674.837 307.385 674 292.487C673.972 291.992 673.312 292.019 673.25 292.487C671.482 305.775 669.502 318.924 668.55 332.341C667.61 345.596 667.176 358.922 667.064 372.21C666.845 398.134 667.226 424.054 668.459 449.951C670.957 502.44 675.903 554.844 683.698 606.813C685.91 621.565 688.387 636.273 691.074 650.945C692.359 657.961 693.69 664.967 695.067 671.965C695.813 675.756 696.399 679.664 697.363 683.407C698.424 687.528 700.305 689.488 703.911 691.751C706.634 693.458 709.993 692.188 711.672 689.715C713.717 686.704 714.725 684.452 714.153 680.792C713.653 677.596 712.89 674.423 712.249 671.253C710.963 664.899 709.715 658.539 708.506 652.17C706.087 639.434 703.86 626.664 701.693 613.882C697.317 588.069 693.612 562.138 690.27 536.172C686.597 507.635 683.841 478.952 681.805 450.219C683.505 451.871 685.707 452.78 688.595 453.134C693.024 453.676 698.063 451.574 702.619 449.672C704.131 449.041 705.591 448.432 706.957 447.949L729.068 440.133L733.599 438.524C733.796 452.029 735.189 465.691 736.329 479.016L737.23 489.544C738.431 503.58 739.62 517.614 740.743 531.659C743.273 563.319 748.278 594.839 753.548 626.168L755.084 635.258C756.728 644.966 758.412 654.666 760.136 664.359C760.998 669.204 761.911 674.035 762.874 678.86C763.376 681.377 763.653 684.129 764.421 686.572C765.634 690.43 768.314 692.026 771.734 693.626L772.364 693.917C774.279 694.795 776.538 694.785 778.101 693.176C780 691.222 782.127 689.297 782.876 686.572C783.482 684.366 783.039 682.092 782.607 679.878C782.571 679.693 782.535 679.509 782.5 679.325L782.361 678.574C781.562 674.048 780.803 669.514 779.966 664.994C778.412 656.612 776.814 648.238 775.283 639.852C772.103 622.438 769.231 604.968 766.048 587.556C759.822 553.502 752.561 519.621 746.635 485.522C743.847 469.48 741.578 452.964 737.857 437.001C745.435 434.291 753.001 431.547 760.539 428.713C766.576 426.444 768.474 421.032 766.012 415.261C756.494 392.953 751.784 368.499 747.568 344.518L744.786 328.601C740.269 302.624 735.99 276.525 728.532 251.196C713.337 199.588 681.976 155.763 640.12 122.239C619.88 106.029 598.373 91.4176 575.021 80.2078L574.877 80.1399C573.354 79.4342 569.422 77.9608 566.075 77.8262C562.616 77.6872 559.081 79.9082 558.488 84.9492L558.476 85.0312L558.046 84.5732C555.701 82.1876 552.534 80.6843 549.918 78.6052C547.233 76.4712 544.746 74.0392 542.452 71.4942C538.165 66.7372 534.643 61.1932 531.705 55.5132C525.701 43.9051 523.856 31.5877 522.375 18.8544L522.083 16.3022C521.897 14.6672 519.711 13.7282 518.763 15.4032C511.081 28.9902 512.885 47.0492 518.511 61.0752C521.585 68.7392 525.779 75.5192 531.149 81.7982C536.113 87.6022 543.733 95.6972 551.43 97.3682C553.229 97.7592 554.868 97.5482 556.247 96.9302C546.627 134.346 513.917 163.705 476.789 173.126C429.599 185.101 380.729 168.267 344.836 137.056C327.219 121.738 312.603 103.256 298.749 84.5149L296.984 82.1212C297.105 82.1782 297.242 82.2182 297.4 82.2322C317.878 83.9632 336.893 75.8522 352.839 63.3622C369.803 50.0762 380.673 31.6332 387.499 11.4142ZM294.039 69.283C290.11 68.8407 286.143 68.3941 282.235 68.5639C277.201 68.7829 272.184 69.1039 267.174 69.6639C257.886 70.7039 248.234 73.2299 239.363 76.1339C220.384 82.3479 202.438 91.1369 185.598 101.841C151.152 123.735 121.762 152.927 96.8833 185.117C69.2443 220.878 46.6173 260.429 29.0873 302.061C20.3323 322.856 12.8513 344.171 6.80127 365.91C5.30927 371.271 3.89527 376.655 2.58227 382.063L2.46597 382.535C2.28315 383.268 2.08773 384.013 1.8899 384.768C0.638578 389.539 -0.708997 394.677 0.429273 399.431C1.61127 404.372 5.27327 407.72 9.51927 410.161C14.8713 413.238 20.5643 415.854 26.0703 418.642C29.1743 420.214 32.2903 421.779 35.4153 423.333C27.3894 448.456 23.4478 475.129 19.8575 501.21L17.9349 515.239C13.0099 551.581 9.2414 588.071 7.35527 624.707C6.81627 635.186 6.37327 645.67 6.02627 656.157C5.85327 661.4 5.70427 666.644 5.58027 671.889C5.56362 672.584 5.53772 673.28 5.51188 673.975C5.30647 679.496 5.10421 684.932 9.57027 689.045C13.3263 692.503 18.4523 692.328 22.2473 689.045C25.9836 685.812 26.4351 681.699 26.5475 677.258L26.6849 670.25C26.7509 667.191 26.8256 664.132 26.9083 661.073C27.1553 651.896 27.4773 642.722 27.8723 633.55C28.6763 614.888 29.5993 596.228 30.8673 577.591C33.3783 540.691 36.7333 503.919 40.5383 467.133C41.9013 453.951 43.3093 440.738 43.8923 427.501C84.1703 447.059 126.391 463.798 171.584 465.255C170.254 479.823 168.962 494.392 167.766 508.974C164.391 550.087 160.742 591.17 157.57 632.301C156.702 643.571 155.855 654.841 155.066 666.117C154.819 669.642 154.514 673.182 154.208 676.728C153.484 685.123 152.756 693.557 152.794 701.921C152.815 706.432 156.252 710.367 160.72 710.899C164.758 711.379 170.09 708.903 170.749 704.351C173.706 683.928 174.125 662.84 175.42 642.247C176.713 621.695 178.145 601.146 179.253 580.583C181.466 539.477 183.956 498.378 185.831 457.256C186.89 434.038 187.86 410.747 184.825 387.636C184.703 386.704 183.368 386.35 183.075 387.399C177.627 406.921 175.131 427.169 173.229 447.31L172.895 450.953C130.234 449.862 89.7267 434.102 51.8161 415.517L49.4983 414.376C48.0121 413.642 33.1923 406.104 24.2954 401.519L19.7343 399.154C18.3833 398.446 15.4753 397.605 14.7273 396.244C14.067 395.042 14.8618 392.431 15.411 390.627C15.5655 390.119 15.7005 389.675 15.7783 389.345C16.9843 384.212 18.2563 379.095 19.6083 373.998C25.1683 353.049 32.0323 332.447 40.1333 312.345C69.9633 238.324 117.233 166.83 182.545 119.609C199.506 107.346 217.935 96.6719 237.339 88.7639C247.075 84.7959 256.837 81.7269 266.894 78.7519L270.713 77.6218C279.631 74.9862 288.613 72.3909 297.693 70.4939C298.191 70.3899 298.023 69.7079 297.581 69.6649C296.406 69.5493 295.224 69.4164 294.039 69.283Z" transform="translate(19.00033 -4.999743)" fill="#000000" fill-rule="evenodd" stroke="none"></path></g><g transform="translate(225 0)"><g><g><path d="M361.406 119.845C361.07 107.887 343.677 102.922 338.652 114.765C338.34 115.082 338.001 115.387 337.683 115.66C339.256 114.311 335.967 116.543 335.432 116.819C334.974 117.055 334.506 117.268 334.039 117.488C330.807 87.1942 319.835 54.5362 291.483 39.3302C251.939 20.1542 206.246 16.4112 162.863 18.3162C140.886 19.6202 115.508 23.1342 95.9827 12.0162C89.8987 8.55221 85.0217 3.09921 78.1467 0.958206C56.4437 -4.91279 46.5997 17.3732 49.5557 35.7002C40.2987 35.7732 31.1157 40.8982 27.1207 49.3362C24.7747 54.3302 24.8157 59.7192 22.7927 64.7312C16.5857 77.4412 7.70466 86.5772 12.7257 101.987C3.89466 112.036 8.92966 127.249 16.0557 136.87C19.5747 141.874 23.7657 146.678 26.3437 152.279C28.8457 157.642 25.0687 164.002 22.9667 169.086C7.42666 205.935 8.31466 246.516 16.6767 284.952C-0.103336 292.233 -5.13934 314.993 5.80266 329.324C9.56766 334.39 14.1607 336.27 19.3697 339.387C25.9617 343.015 20.5777 357.547 22.6887 364.565C25.5567 381.698 41.1567 392.249 56.5817 381.123C66.3697 379.642 74.2647 408.121 81.3727 415.269C85.7517 421.029 90.6137 426.201 95.8997 430.974C111.65 471.499 192.356 492.049 232.258 489.703C274.043 485.328 302.232 449.842 325.704 418.348C337.757 401.567 345.596 382.785 348.447 362.3C351.311 341.712 350.058 321.087 348.122 300.474C344.055 256.678 337.639 193.582 333.496 149.313C348.468 148.08 361.86 135.333 361.406 119.845L361.406 119.845Z" transform="translate(68.99953 24.00009)" fill="#FFFFFF" stroke="none"></path><path d="M0.486308 0.4125C0.472308 0.4745 0.493308 0.5215 0.507308 0.5875C0.510309 0.5685 0.513308 0.5585 0.518308 0.5355C0.506308 0.4855 0.497308 0.4525 0.486308 0.4125" transform="translate(103.5312 117.1017)" fill="#4F66AF" stroke="none"></path><path d="M0.6075 0.5795C0.5525 0.5215 0.4745 0.4785 0.3965 0.4205C0.3945 0.4225 0.3935 0.4245 0.3925 0.4265C0.4655 0.4745 0.5355 0.5295 0.6075 0.5795" transform="translate(103.4061 117.5714)" fill="#4F66AF" stroke="none"></path><path d="M92.577 3.59013C80.654 -3.49687 64.53 -0.209872 60.947 14.5061C59.697 19.6378 60.1842 25.0115 60.6693 30.362C60.9906 33.9063 61.3111 37.4404 61.125 40.8871C52.513 39.3501 43.208 41.7991 37.216 48.5231C31.175 55.3011 29.559 64.0491 31.536 72.1821C23.395 75.3081 16.656 82.0031 14.174 90.5871C12.097 97.7671 13.186 105.279 16.552 111.635C14.611 113.232 12.922 115.243 11.626 117.635C6.53997 127.02 10.733 137.6 17.31 144.99C23.604 152.062 31.758 157.155 40.617 160.673C29.005 176.821 22.67 197.235 19.61 216.484C17.726 228.335 16.987 240.437 17.595 252.427C17.92 258.847 18.773 265.271 19.792 271.615L19.8929 272.255C20.4939 276.122 21.0264 280.493 22.619 284.173C13.091 288.766 5.64997 297.603 2.10897 307.759C-3.55203 323.994 2.66097 342.547 15.044 353.963C18.125 356.803 21.558 359.387 25.262 361.358L28.283 363.017C27.9441 364.04 27.8327 366.443 27.7452 367.752L27.6685 368.732C27.0459 376.898 28.4666 385.823 33.292 392.582C39.001 400.577 48.369 404.03 57.964 401.933C62.199 401.007 66.164 398.759 69.061 395.553C71.237 393.144 72.355 390.591 72.522 387.986C76.081 402.915 84.156 416.486 93.813 428.277C98.785 434.347 104.173 440.023 110.077 445.194L110.471 445.543C111.051 446.062 111.68 446.647 112.351 447.27C117.257 451.829 124.35 458.421 130.226 456.126C132.278 455.324 133.955 453.651 133.909 451.289C133.762 444.012 124.16 440.168 119.098 436.173C113.169 431.494 107.497 426.414 102.224 421.008C92.6523 411.197 84.3739 400.367 75.9506 389.605L73.749 386.799C73.38 386.33 72.8 386.559 72.539 386.978C72.465 384.521 71.566 382.03 69.895 379.58C67.573 376.173 62.023 374.376 58.784 377.796L57.537 378.351C56.232 379.124 55.168 380.138 54.319 381.365L53.956 381.649C53.7649 381.793 53.538 381.955 53.2914 382.109L53.2151 382.153C53.3614 382.051 53.1985 382.079 52.9158 382.128C52.6581 382.172 52.3012 382.234 51.991 382.229L51.405 382.205L50.881 382.047C50.465 381.594 49.189 380.342 49.053 380.126C48.598 379.399 48.3359 378.728 48.0867 377.966L47.872 377.288C46.927 374.236 46.9669 370.97 47.144 367.798L47.2586 365.88C47.5235 361.147 47.4291 356.768 44.626 352.626C42.4652 349.433 39.3809 347.7 36.0209 346.11L34.7318 345.505C28.3201 342.423 23.3477 337.948 19.994 331.579C13.618 319.467 18.061 304.167 29.325 296.589C41.12 288.652 59.766 293.073 67.007 305.087C67.361 305.673 68.307 305.293 68.121 304.617C65.069 293.518 56.716 285.138 46.096 282.08C46.556 279.449 45.72 276.146 44.084 273.988C42.177 265.129 40.303 256.378 39.415 247.304C38.388 236.798 38.352 226.214 39.027 215.682C39.9438 201.349 42.9687 187.559 46.2336 173.76L48.698 163.4C54.858 165.152 61.178 166.259 67.321 166.808C74.473 167.446 81.554 167.387 88.58 166.822C94.807 183.737 94.57 202.998 86.875 219.518C84.1532 225.36 80.2374 231.124 76.2658 236.969C67.1003 250.459 57.6371 264.387 61.863 280.737C64.531 291.056 80.27 288.824 80.329 278.237C80.3893 267.581 84.1738 258.892 89.0596 249.694L90.1054 247.741C95.5851 237.494 100.225 227.382 101.767 215.724C104.007 198.789 100.497 181.302 92.11 166.496C121.985 163.38 150.9 151.553 180.07 145.199C202.315 140.354 227.239 139.305 247.589 151.123C247.962 151.339 248.257 150.798 247.92 150.556C219.564 130.105 182.84 133.008 150.325 140.215C145.116 141.37 139.86 142.651 134.57 143.941C108.19 150.372 80.9504 157.012 54.287 149.217C46.296 146.881 38.541 143.044 32.285 137.487C29.531 135.041 26.131 131.783 25.588 127.917C25.409 126.641 25.465 125.767 26.218 124.757C26.5906 124.257 27.0957 123.996 27.4385 123.819C27.8168 123.623 27.9974 123.529 27.584 123.33C36.885 127.813 44.845 114.756 35.77 109.325L35.4261 109.113C24.2485 102.032 30.002 85.8252 42.97 86.2301L43.2321 86.2346C50.5105 86.2564 52.6786 77.5533 48.612 72.6111L48.3869 72.3297C41.159 63.0212 53.521 51.7737 62.93 57.3711L63.1598 57.503C67.6081 59.9632 72.285 57.2242 73.968 52.8801C76.7438 45.7137 76.2934 38.3684 75.8399 30.971C75.6907 28.5375 75.5411 26.0984 75.506 23.6581L75.4905 22.6087C75.4656 20.2867 75.548 17.246 76.911 15.9011C80.043 12.8116 85.3277 16.4632 88.4321 18.7987L90.4298 20.3171C94.9581 23.8084 99.1961 27.6024 104.088 30.6221C109.427 33.9201 115.225 36.5421 121.114 38.6921C132.534 42.8611 144.819 44.7321 156.926 45.3231C173.3 46.1224 190.561 43.8137 207.958 41.4868C243.191 36.7744 278.978 31.9877 309.076 52.7941C319.733 60.1611 327.088 70.9331 330.883 83.2531C335.163 97.1461 333.697 111.534 337.199 125.475C338.737 131.598 349.44 132.385 350.397 125.475C350.527 124.539 350.688 123.587 350.85 122.628C351.256 120.23 351.669 117.785 351.62 115.419C351.544 111.731 350.724 107.868 350.213 104.219L349.99 102.659C349.077 96.4151 347.92 90.157 346.367 84.0471C343.045 70.9741 336.852 58.6601 327.241 49.0821C309.4 31.3021 283.294 24.0331 258.698 23.2631C242.089 22.7432 225.67 24.9303 209.249 27.1176C194.243 29.1164 179.235 31.1155 164.08 31.0491C151.039 30.9921 138.023 29.4011 125.684 25.0251C119.473 22.8221 113.587 19.7031 108.261 15.8191C102.904 11.9131 98.312 6.99813 92.577 3.59013ZM118.578 54.5781C116.779 53.8291 116.027 56.5131 117.349 57.4911C124.453 62.7431 133.173 65.0201 141.866 63.1291C144.697 62.5131 144.086 57.9481 141.181 58.0651C133.317 58.3791 125.906 57.6291 118.578 54.5781ZM291.607 65.7657C290.311 65.2647 288.941 67.0467 289.755 68.1757C293.486 73.3497 297.957 77.8747 301.778 82.9697C305.612 88.0807 308.814 93.4517 313.35 97.9987C315.784 100.439 319.929 97.9567 319.069 94.6697C315.813 82.2267 303.426 70.3337 291.607 65.7657ZM96.1019 73.7327C95.1539 72.7857 96.1079 70.8997 97.4699 71.3817C105.165 74.1067 112.918 76.4647 121.002 77.7017C125.984 78.4634 130.993 78.4186 136.007 78.3738C139.326 78.3441 142.647 78.3144 145.963 78.5187C149.33 78.7257 151.623 83.9637 147.88 85.5937C131.248 92.8347 108.658 86.2687 96.1019 73.7327ZM74.9896 99.28C73.2166 97.592 75.0606 94.714 77.3156 95.284C89.2086 98.295 100.987 101.957 113.352 102.321C119.528 102.502 125.669 102.015 131.787 101.216L134.884 100.805C139.655 100.182 144.508 99.6931 149.224 100.673C152.368 101.326 152.982 105.376 151.023 107.489C141.772 117.468 123.928 116.514 111.659 114.832C98.3356 113.004 84.8926 108.714 74.9896 99.28ZM280.182 101.687L280.075 101.681C279.266 101.683 278.835 102.921 279.453 103.447C284.735 107.943 289.893 112.926 293.644 118.808C295.466 121.663 296.988 124.707 298.09 127.913C299.291 131.411 299.68 135.037 301.395 138.345C304.269 143.889 311.971 140.792 312.358 135.375C312.943 127.204 306.118 118.016 300.71 112.448C295.095 106.666 288.178 102.72 280.182 101.687ZM236.288 107.192C235.543 106.98 235.006 108.139 235.746 108.477C254.141 116.891 268.093 130.319 278.983 147.145C280.015 148.738 281.572 149.205 283.364 148.927C284.317 148.779 284.818 148.29 285.325 147.628L285.682 147.145C286.459 146.079 286.356 144.306 285.682 143.229C274.628 125.576 256.129 112.858 236.288 107.192ZM368.572 111.808C370.253 108.961 374.71 109.534 375.597 112.726L375.725 113.004C376.204 114.092 375.986 114.315 375.093 113.699C377.305 115.521 378.306 118.235 377.63 121.153C373.978 136.913 356.127 148.167 340.565 146.618C339.207 146.483 339.022 144.814 340.253 144.316C346.24 141.892 351.554 137.955 355.827 133.124C359.98 128.428 361.727 123.055 363.961 117.384C364.799 115.255 366.103 113.722 367.94 112.885C368.183 112.549 368.395 112.191 368.572 111.808ZM373.024 134.504C377.942 130.418 385.689 134.18 384.023 140.907C382.21 148.233 374.358 153.239 367.876 156.249C361.204 159.346 354.705 159.943 347.426 159.605L347.336 159.585C349.357 167.688 350.503 176.111 352.049 184.263C354.011 194.605 355.941 204.952 357.842 215.304C359.681 225.31 362.006 235.329 363.419 245.385C364.844 255.536 366.212 265.694 367.612 275.848C369.948 292.807 371.834 309.844 373.823 326.851L374.77 334.902C376.762 351.941 378.365 369.002 374.591 385.959C371.054 401.851 363.086 416.675 353.844 429.941C344.793 442.931 334.682 455.421 323.583 466.72C302.174 488.511 275.774 505.964 244.818 509.201C231.489 510.595 217.253 509.044 204.722 504.199L203.89 503.874C191.205 498.865 175.671 490.29 172.37 476.219C170.343 467.587 179.238 460.848 187.037 464.944C190.65 466.842 193.367 469.011 196.333 471.73L196.86 472.216C199.284 474.467 200.217 475.159 203.014 476.92C208.751 480.529 213.051 482.237 219.567 483.877C231.581 486.899 244.547 486.421 256.743 482.847C282.637 475.259 302.725 455.459 319.934 435.606C329.278 424.825 338.147 413.516 344.987 400.951C352.164 387.768 355.477 373.927 355.278 358.927C355.053 342.002 352.714 325.011 351.179 308.166C349.615 290.993 348.169 273.826 346.895 256.629C345.701 240.502 345.586 224.302 345.169 208.125L345.087 205.092C344.842 196.504 344.672 187.913 344.477 179.323C344.431 177.299 344.358 175.269 344.286 173.236C344.05 166.664 343.814 160.067 344.488 153.555C344.551 152.934 345.388 152.777 345.592 153.405C346.112 155.003 346.567 156.626 346.997 158.258C347.063 158.208 347.137 158.163 347.227 158.132C352.931 156.172 358.184 152.259 362.464 148.039C366.548 144.012 368.681 138.113 373.024 134.504ZM36.792 318.206C44.688 314.342 54.046 314.956 61.933 318.618L62.4674 318.872C71.0783 323.047 82.4829 332.803 79.746 343.179C78.144 349.247 71.402 351.319 66.174 348.7C61.807 346.511 60.811 342.598 58.62 338.667C57.071 335.887 55.156 333.714 52.907 331.479C48.166 326.77 42.841 323.272 36.792 320.473C35.92 320.069 35.95 318.619 36.792 318.206Z" transform="translate(55.00003 15.00067)" fill="#000000" fill-rule="evenodd" stroke="none"></path></g></g><g transform="translate(159 186)"><g><path d="M175.373 49.5872C175.699 49.4437 175.991 49.2049 176.203 48.8583C178.978 44.3099 179.267 38.8813 178.039 33.5637C176.563 27.172 172.899 20.9588 168.944 16.7559C163.959 11.4582 157.895 7.75374 151.246 4.94731C150.762 4.74287 150.267 4.53098 149.763 4.31514C142.964 1.40541 134.597 -2.01031 127.865 1.47064C125.161 2.86951 123.673 5.20381 123.256 7.7496C122.814 10.4534 123.597 13.4099 125.462 15.7216C128.557 19.5594 133.339 20.3533 138.087 21.0465C139.602 21.2677 141.106 21.486 142.53 21.8229C147.429 22.9821 152.604 24.4361 157.104 26.7244C166.253 31.3762 170.54 38.5898 172.747 48.2853C172.837 48.6781 173.037 48.9988 173.3 49.2406C173.575 49.4928 173.921 49.6579 174.285 49.7192C174.651 49.7808 175.032 49.7375 175.373 49.5872ZM58.3942 19.1934C55.0693 22.4329 51.1339 22.9347 47.1526 23.381C44.9405 23.6313 43.1746 23.8331 41.4369 24.2252C36.6605 25.3034 31.9393 26.9272 27.6319 29.2659C23.1292 31.7106 18.2224 34.659 14.6922 38.4361C13.8528 39.3349 13.0615 40.278 12.2691 41.2232C11.5465 42.0851 10.8505 42.9149 10.1169 43.7149C9.27449 44.6339 8.47449 45.597 7.67875 46.5576C7.1867 47.3681 7.0895 47.5675 6.99041 47.775C6.8413 48.0869 6.66786 48.4359 6.46976 48.8103C6.19845 49.323 5.88066 49.8843 5.54784 50.3932C4.9941 51.3234 4.69697 51.5796 4.44022 51.6942C4.01419 51.8839 3.61015 51.9774 3.21817 51.9268C2.85064 51.8793 2.50438 51.7028 2.16244 51.4138C0.455387 49.9715 -0.0480658 47.6046 0.00353523 45.092C0.0818393 41.2793 1.48813 37.0578 2.78452 34.4628C5.79888 28.4331 9.97938 22.1649 15.0062 17.6646C20.7422 12.5276 27.0177 8.63869 34.2256 5.95894C38.705 4.29304 43.8913 2.76391 48.7713 2.95706C52.284 3.09609 55.6373 4.14026 58.4066 6.74782C60.1072 8.34853 60.9235 10.6254 60.9235 12.9006C60.9235 15.2211 60.0757 17.5554 58.3942 19.1934ZM164.634 78.3299C166.478 78.8824 167.779 78.6212 169.441 77.7551C170.719 77.0896 171.589 76.0387 172.088 74.8117C172.599 73.5559 172.706 72.1077 172.454 70.7659C171.405 65.1948 168.042 60.2513 163.503 57.0672C159.091 53.9728 153.589 52.5435 148.048 53.7341C144.003 54.6036 138.007 58.4424 134.85 63.1243C133.504 65.1203 132.671 67.2595 132.581 69.3723C132.495 71.387 133.008 73.4183 135.676 76.096C135.935 76.177 136.208 76.2208 136.477 76.2208C137.138 76.2208 137.821 75.9439 138.274 75.5441C139.469 74.4935 140.311 73.1636 141.178 71.7329C141.641 70.9679 142.102 70.1976 142.69 69.5195C144.449 67.4927 147.002 65.7736 149.683 65.3262C152.167 64.911 154.406 65.6469 156.181 67.0355C158.256 68.6601 159.713 71.1522 160.252 73.8146C160.472 74.8933 161.036 75.8657 161.818 76.6477C162.607 77.4367 163.615 78.0237 164.634 78.3299ZM46.1749 69.1109C43.7479 67.5587 40.8928 67.0259 37.7287 68.4655C35.256 69.5899 30.9192 73.3385 27.9011 78.2662C25.8363 81.6374 24.3721 85.5922 24.6769 89.7117C24.7477 90.6684 24.3942 91.3738 23.8366 91.8954C23.3962 92.3073 22.7601 92.61 22.013 92.7047C21.3786 92.785 20.6686 92.7125 20.0913 92.5324C18.9931 92.1896 18.4119 91.4772 18.1929 90.8957C16.0797 85.2836 16.9901 79.0208 19.3585 73.3707C22.5547 65.7456 28.3592 59.3585 32.1622 57.2993C38.6698 53.7742 46.347 53.612 52.8639 57.2031C58.4114 60.2596 61.8802 65.1942 65.3301 70.2242C66.0635 71.2934 66.7914 72.3548 67.5436 73.3976C69.0513 75.487 69.2013 77.5593 68.6175 79.3363C67.9707 81.3049 66.3215 82.9663 64.2592 83.8357C62.353 84.6393 60.1407 84.7524 58.1831 83.9268C56.5293 83.2293 55.0117 81.8695 54.0513 79.5625C52.434 75.6771 49.7393 71.3904 46.1749 69.1109ZM127.748 115.98C135.872 104.601 124.366 93.898 116.814 89.3079C114.836 87.8879 116.406 83.1842 120.634 83.9112C159.031 90.5082 139.136 156.649 90.112 120.354C84.2754 115.645 91.3434 105.275 97.6342 109.307C97.9532 109.552 98.2876 109.81 98.6364 110.08C105.704 115.544 118.636 125.542 127.748 115.98ZM117.042 185.1C109.675 187.233 101.768 187.424 94.2589 185.221C87.4481 183.222 80.4549 178.823 75.4423 173.003C70.9894 167.832 68.1055 161.549 68.2187 154.842C68.2316 154.076 68.5055 153.436 68.9268 152.94C69.3804 152.406 70.014 152.039 70.6926 151.88C71.3906 151.716 72.1285 151.774 72.7568 152.059C73.3256 152.318 73.8129 152.757 74.1176 153.398C74.8879 154.41 75.6553 155.407 76.4257 156.376C82.6196 164.024 88.618 169.74 97.9319 171.79C102.985 172.903 108.032 172.409 112.663 170.712C117.62 168.895 122.102 165.7 125.613 161.612C127.2 159.765 129.074 159.011 130.905 158.998C132.982 158.983 135.034 159.948 136.579 161.49C138.099 163.006 139.116 165.065 139.209 167.219C139.29 169.11 138.673 171.085 137.032 172.848C131.626 178.652 124.621 182.904 117.042 185.1Z" transform="translate(54.00004 55.05923)" fill="#000000" fill-rule="evenodd" stroke="none"></path></g></g><g transform="translate(123 338)"></g><g transform="translate(47 241)"></g></g></g></svg>